<svg viewBox="0 0 1728 423" fill="none" xmlns="http://www.w3.org/2000/svg" preserveAspectRatio="none">
<g clip-path="url(#clip0_108_5)">
<path d="M0 422.773H1728V21.7733C1427 -51.2267 1412.5 84.5539 1234 62.7733C877.5 19.2733 841.5 179 720 142.5C720 142.5 796.5 49 471.5 77.5C146.5 106 182 171.5 0 91.7733V422.773Z" fill="#FFFCF2"/>
<path d="M-0.5 154.5C140.5 203 310.844 300.87 421.5 211.273C491 155 537.5 141.773 608.5 170.773C679.5 199.773 716.5 256.773 923 187.773C1129.5 118.773 1217.5 85.7733 1370 122.273C1522.5 158.773 1618.5 160.273 1729 122.273M0 292.773C72.5 281.773 101.446 252.871 292 280.5C431.5 300.727 552 330.773 609.5 292.773C667 254.773 719.076 248.5 785 248.5C864.5 248.5 899.5 221.773 1064 198.273C1228.5 174.773 1272.5 164.273 1408.5 187.773C1544.5 211.273 1629.5 227.273 1729 198.273M0 323.273C112 317.773 101.5 303.273 255 323.273C408.5 343.273 515 359.273 609.5 341.273C704 323.273 760 281.773 885 270.773C1010 259.773 1100.5 284.773 1251 270.773C1401.5 256.773 1423 234.773 1528 234.773C1612 234.773 1699.33 258.773 1730 270.773M1728 53.7733C1665 37.2733 1571.5 14.2734 1379.5 68.2733C1187.5 122.273 1125.5 64.7733 982.5 106.273C839.5 147.773 845 180.129 743.5 169.273C597 153.605 611.234 81.0705 403.5 122.273C238.5 155 282.5 112.458 171 155C110.195 178.2 23.5 122.273 1 122.273M0 375C29.5 369 71 363 217 387C372.936 412.633 531.885 361.626 710 371C900 381 943 288.5 1132.5 310.273C1272.82 326.396 1370 383 1610 383C1677.2 383 1718.67 367 1730 363M0 418C70 398.5 386 418 511 418C611.659 418 846.918 377.23 988 388.5C1157 402 1472.5 435.5 1730 397M491 211.273C431.5 247.273 405.5 268.773 445 270.773C484.5 272.773 629 281.773 624 234.773C619 187.773 530.5 185.057 491 211.273ZM302 223.773C334.5 223.773 479 179.773 390.5 169.273C302 158.773 238.5 148.172 238.5 187.773C238.5 211.273 269.5 223.773 302 223.773ZM1542.5 122.273C1627.5 122.273 1731 99.2734 1651 82.7734C1571 66.2734 1513 55.7734 1471.5 82.7734C1438.3 104.373 1505 118.107 1542.5 122.273ZM1561.5 280.5C1542.5 280.5 1329.5 287 1375 309C1420.5 331 1612 361.727 1659 351.5C1706 341.273 1710 305.047 1672 292.773C1634 280.5 1580.5 280.5 1561.5 280.5Z" stroke="hsla(83,35%,90%,1)" stroke-opacity="0.25" stroke-width="4"/>
</g>
<defs>
<clipPath id="clip0_108_5">
<rect width="1728" height="423" fill="white"/>
</clipPath>
</defs>
</svg>
