<svg viewBox="0 0 1728 999" fill="none" xmlns="http://www.w3.org/2000/svg" 
preserveAspectRatio="none">
<path d="M0 0H1728V669C1427 596 1412.5 731.781 1234 710C877.5 666.5 847.5 825.5 726 789C726 789 798.5 689 473.5 717.5C148.5 746 50.6302 797.213 0 739V0Z" />
<!-- fill="#AFCA9B" -->
<path d="M13 806C154 854.5 314 953 420.5 858.5C527 764 537.5 777 608.5 806C679.5 835 766 904 972.5 835C1179 766 1216.5 733 1369 769.5C1521.5 806 1613.5 807.5 1724 769.5M13 940C85.5 929 141.5 925.5 333.5 940C525.5 954.5 584 978 641.5 940C699 902 703 896 768 907C833 918 917 882 1081.5 858.5C1246 835 1311 811.5 1447 835C1583 858.5 1624.5 874.5 1724 845.5M13 970.5C125 965 100.5 950.5 254 970.5C407.5 990.5 514 1006.5 608.5 988.5C703 970.5 759 929 884 918C1009 907 1086.5 921 1237 907C1387.5 893 1422 882 1527 882C1611 882 1693.33 906 1724 918M1724 701C1661 684.5 1570.5 661.5 1378.5 715.5C1186.5 769.5 1124.5 712 981.5 753.5C838.5 795 889 832.169 742.5 816.5C596 800.831 609 722.5 402.5 769.5C196 816.5 241.007 777 165 806C104.195 829.2 38.3311 798.667 13 780.5M512.5 858.5C453 894.5 433.5 916 473 918C512.5 920 628 929 623 882C618 835 552 832.283 512.5 858.5ZM301 871C333.5 871 478 827 389.5 816.5C301 806 237.5 795.399 237.5 835C237.5 858.5 268.5 871 301 871ZM1541.5 769.5C1626.5 769.5 1730 746.5 1650 730C1570 713.5 1512 703 1470.5 730C1437.3 751.6 1504 765.333 1541.5 769.5Z" stroke="#297E7E" stroke-opacity="0.25" stroke-width="4"/>
</svg>
